HIERARCHY
ROOT hip
{
	OFFSET 0.000000 0.000000 0.000000
	CHANNELS 6 Xposition Yposition Zposition Xrotation Zrotation Yrotation 
	JOINT abdomen
	{
		OFFSET 0.000000 3.422050 0.000000
		CHANNELS 3 Xrotation Zrotation Yrotation 
		JOINT chest
		{
			OFFSET 0.000000 8.486693 -0.684411
			CHANNELS 3 Xrotation Zrotation Yrotation 
			JOINT neck
			{
				OFFSET 0.000000 10.266162 -0.273764
				CHANNELS 3 Xrotation Zrotation Yrotation 
				JOINT head
				{
					OFFSET 0.000000 3.148285 0.000000
					CHANNELS 3 Xrotation Zrotation Yrotation 
					End Site
					{
						OFFSET 0.000000 3.148289 0.000000
					}
				}
			}
			JOINT lCollar
			{
				OFFSET 3.422053 6.707223 -0.821293
				CHANNELS 3 Yrotation Zrotation Xrotation 
				JOINT lShldr
				{
					OFFSET 3.285171 0.000000 0.000000
					CHANNELS 3 Zrotation Yrotation Xrotation 
					JOINT lForeArm
					{
						OFFSET 10.129278 0.000000 0.000000
						CHANNELS 3 Yrotation Zrotation Xrotation 
						JOINT lHand
						{
							OFFSET 8.486692 0.000000 0.000000
							CHANNELS 3 Zrotation Yrotation Xrotation 
							End Site
							{
								OFFSET 4.106464 0.000000 0.000000
							}
						}
					}
				}
			}
			JOINT rCollar
			{
				OFFSET -3.558935 6.707223 -0.821293
				CHANNELS 3 Yrotation Zrotation Xrotation 
				JOINT rShldr
				{
					OFFSET -3.148289 0.000000 0.000000
					CHANNELS 3 Zrotation Yrotation Xrotation 
					JOINT rForeArm
					{
						OFFSET -10.266159 0.000000 0.000000
						CHANNELS 3 Yrotation Zrotation Xrotation 
						JOINT rHand
						{
							OFFSET -8.349810 0.000000 0.000000
							CHANNELS 3 Zrotation Yrotation Xrotation 
							End Site
							{
								OFFSET -4.106464 0.000000 0.000000
							}
						}
					}
				}
			}
		}
	}
	JOINT lThigh
	{
		OFFSET 5.338403 -1.642589 1.368821
		CHANNELS 3 Xrotation Zrotation Yrotation 
		JOINT lShin
		{
			OFFSET -2.053232 -20.121670 0.000000
			CHANNELS 3 Xrotation Zrotation Yrotation 
			JOINT lFoot
			{
				OFFSET 0.000000 -19.300380 -1.231939
				CHANNELS 3 Xrotation Yrotation Zrotation 
				End Site
				{
					OFFSET 0.000000 -2.463878 4.653993
				}
			}
		}
	}
	JOINT rThigh
	{
		OFFSET -5.338403 -1.642589 1.368821
		CHANNELS 3 Xrotation Zrotation Yrotation 
		JOINT rShin
		{
			OFFSET 2.053232 -20.121670 0.000000
			CHANNELS 3 Xrotation Zrotation Yrotation 
			JOINT rFoot
			{
				OFFSET 0.000000 -19.300380 -1.231939
				CHANNELS 3 Xrotation Yrotation Zrotation 
				End Site
				{
					OFFSET 0.000000 -2.463878 4.653993
				}
			}
		}
	}
}
MOTION
Frames: 6
Frame Time: 0.076905
0.351432 5.402042 -4.622759 -89.999779 -0.002623 -49.999363 30.732277 -16.266411 -8.121085 -3.219078 -9.722191 -14.711073 -6.598399 -7.395378 -17.550190 -12.512704 11.357066 29.189421 -15.796032 -9.161973 -3.297441 -62.923637 -26.780302 -66.428642 13.880857 -7.049634 65.993668 -35.963238 56.875977 1.319207 -65.160774 -9.204206 -8.220331 15.399710 25.615841 36.148388 76.042709 -44.017902 29.891783 -2.433755 8.711284 2.057950 -69.575821 47.088875 42.798027 79.269035 9.246620 -0.668488 44.017540 -15.055641 6.891976 -79.460342 -35.139969 4.314898 70.694664 -2.677670 -0.241996 14.690996 4.622800 10.517703 
0.351432 5.402042 -4.622759 -89.999779 -0.002623 -49.999363 30.732277 -16.266411 -8.121085 -2.465666 -9.693349 -14.709345 -6.766938 -7.090246 -17.981375 -12.698298 11.562686 29.167706 -15.897226 -8.891423 -3.313205 -62.785046 -27.021170 -66.495270 13.880857 -7.049634 65.993668 -37.238411 57.006981 0.093943 -65.453308 -9.062275 -7.932342 15.399710 25.615841 36.148388 76.042709 -44.017902 29.891783 -3.116707 8.624616 1.674609 -69.575821 47.088875 42.798027 79.269035 9.246620 -0.668488 44.017540 -15.055641 6.891976 -79.460342 -35.139969 4.314898 70.694664 -2.677670 -0.241996 14.690996 4.622800 10.517703 
0.351432 5.402042 -4.622759 -89.999779 -0.002623 -49.999363 30.732277 -16.266411 -8.121085 -1.711794 -9.664511 -14.707232 -6.937449 -6.786791 -18.412613 -12.884052 11.768173 29.145306 -15.998281 -8.620820 -3.328476 -62.645828 -27.261911 -66.562691 13.880857 -7.049634 65.993668 -38.523544 57.123119 -1.141260 -65.746536 -8.921762 -7.643660 15.399710 25.615841 36.148388 76.042709 -44.017902 29.891783 -3.799347 8.533374 1.292175 -69.575821 47.088871 42.798023 79.269035 9.246620 -0.668488 44.017540 -15.055641 6.891976 -79.460342 -35.139969 4.314898 70.694664 -2.677670 -0.241996 14.690996 4.622800 10.517703 
0.351432 5.402042 -4.622759 -89.999779 -0.002623 -49.999363 30.732277 -16.266411 -8.121085 -0.957525 -9.635685 -14.704730 -7.109906 -6.485034 -18.843889 -13.069975 11.973528 29.122215 -16.099201 -8.350166 -3.343256 -62.505978 -27.502535 -66.630951 13.880857 -7.049634 65.993668 -39.817497 57.224148 -2.385303 -66.040451 -8.782680 -7.354300 15.399710 25.615841 36.148388 76.042709 -44.017902 29.891783 -4.481586 8.437582 0.910740 -69.575821 47.088875 42.798027 79.269035 9.246620 -0.668488 44.017540 -15.055641 6.891976 -79.460342 -35.139969 4.314898 70.694664 -2.677670 -0.241996 14.690996 4.622800 10.517703 
0.351432 5.402042 -4.622759 -89.999779 -0.002623 -49.999363 30.732277 -16.266411 -8.121085 -0.202926 -9.606880 -14.701847 -7.284290 -6.185006 -19.275200 -13.256056 12.178735 29.098436 -16.199991 -8.079468 -3.357545 -62.365475 -27.743011 -66.700005 13.880857 -7.049634 65.993668 -41.119129 57.309933 -3.637013 -66.334991 -8.645043 -7.064269 15.399710 25.615841 36.148388 76.042717 -44.017902 29.891783 -5.163334 8.337257 0.530393 -69.575821 47.088875 42.798027 79.269035 9.246620 -0.668488 44.017540 -15.055641 6.891976 -79.460342 -35.139969 4.314898 70.694664 -2.677670 -0.241996 14.690996 4.622800 10.517703 
0.351432 5.402042 -4.622759 -89.999779 -0.002623 -49.999363 30.732277 -16.266411 -8.121085 0.551939 -9.578101 -14.698574 -7.460582 -5.886734 -19.706556 -13.442308 12.383795 29.073957 -16.300655 -7.808727 -3.371345 -62.224327 -27.983355 -66.769875 13.880857 -7.049634 65.993668 -42.427235 57.380318 -4.895188 -66.630196 -8.508860 -6.773585 15.399710 25.615841 36.148388 76.042717 -44.017902 29.891783 -5.844497 8.232419 0.151220 -69.575821 47.088875 42.798027 79.269035 9.246620 -0.668488 44.017540 -15.055641 6.891976 -79.460342 -35.139969 4.314898 70.694664 -2.677670 -0.241996 14.690996 4.622800 10.517703 
